<mxfile host="app.diagrams.net" modified="2023-02-04T15:29:44.015Z" agent="5.0 (Windows NT 10.0; Win64; x64) AppleWebKit/537.36 (KHTML, like Gecko) Chrome/109.0.0.0 Safari/537.36" etag="Wep-qrH_K7rsZCVa3HhZ" version="20.2.2" type="github">
  <diagram id="BTLxzr7Y5_7FIxASn6r4" name="Página-1">
    <mxGraphModel dx="1038" dy="539" grid="1" gridSize="10" guides="1" tooltips="1" connect="1" arrows="1" fold="1" page="1" pageScale="1" pageWidth="827" pageHeight="1169" math="0" shadow="0">
      <root>
        <mxCell id="0" />
        <mxCell id="1" parent="0" />
        <mxCell id="Ree-fu6bCqlC5VlJ2QDA-1" value="&lt;font style=&quot;vertical-align: inherit; font-size: 17px;&quot;&gt;&lt;font style=&quot;vertical-align: inherit; font-size: 17px;&quot;&gt;Atividade online 1&amp;nbsp;&lt;/font&gt;&lt;/font&gt;" style="text;html=1;align=center;verticalAlign=middle;resizable=0;points=[];autosize=1;strokeColor=none;fillColor=none;fontSize=17;" vertex="1" parent="1">
          <mxGeometry x="334" y="50" width="160" height="30" as="geometry" />
        </mxCell>
        <mxCell id="Ree-fu6bCqlC5VlJ2QDA-3" value="Abstrata--&amp;gt;&lt;br&gt;Casa de máquinas,&lt;br&gt;quem usa é&amp;nbsp;&lt;br&gt;o elevador" style="text;html=1;align=center;verticalAlign=middle;resizable=0;points=[];autosize=1;strokeColor=none;fillColor=none;fontSize=17;" vertex="1" parent="1">
          <mxGeometry x="40" y="150" width="170" height="100" as="geometry" />
        </mxCell>
        <mxCell id="Ree-fu6bCqlC5VlJ2QDA-4" value="&lt;div style=&quot;text-align: center;&quot;&gt;&lt;span style=&quot;background-color: initial;&quot;&gt;Pessoa&lt;/span&gt;&lt;/div&gt;&lt;div style=&quot;text-align: center;&quot;&gt;&lt;span style=&quot;background-color: initial;&quot;&gt;--------------------------------&lt;/span&gt;&lt;/div&gt;+ nome: string&lt;br&gt;+endereço: Endereço&lt;br&gt;--------------------------------&lt;br&gt;&lt;div style=&quot;&quot;&gt;&lt;span style=&quot;background-color: initial;&quot;&gt;+ CalcularImposto()&amp;nbsp;&amp;nbsp;&lt;/span&gt;&lt;/div&gt;" style="whiteSpace=wrap;html=1;fontSize=17;align=left;" vertex="1" parent="1">
          <mxGeometry x="250" y="150" width="190" height="130" as="geometry" />
        </mxCell>
        <mxCell id="Ree-fu6bCqlC5VlJ2QDA-5" value="&lt;div style=&quot;text-align: center;&quot;&gt;&lt;span style=&quot;background-color: initial;&quot;&gt;Endereço&lt;/span&gt;&lt;/div&gt;-----------------------------&lt;br&gt;+ logradouro: string&lt;br&gt;&lt;br&gt;+ numero: int&lt;br&gt;&lt;br&gt;+ complemento: string&lt;br&gt;&lt;br&gt;+endComercial: bool" style="whiteSpace=wrap;html=1;aspect=fixed;fontSize=17;align=left;" vertex="1" parent="1">
          <mxGeometry x="620" y="150" width="180" height="180" as="geometry" />
        </mxCell>
        <mxCell id="Ree-fu6bCqlC5VlJ2QDA-6" style="edgeStyle=orthogonalEdgeStyle;rounded=0;orthogonalLoop=1;jettySize=auto;html=1;exitX=0.5;exitY=1;exitDx=0;exitDy=0;fontSize=17;" edge="1" parent="1" source="Ree-fu6bCqlC5VlJ2QDA-5" target="Ree-fu6bCqlC5VlJ2QDA-5">
          <mxGeometry relative="1" as="geometry" />
        </mxCell>
        <mxCell id="Ree-fu6bCqlC5VlJ2QDA-7" value="" style="endArrow=classic;html=1;rounded=0;fontSize=17;exitX=-0.016;exitY=0.121;exitDx=0;exitDy=0;exitPerimeter=0;entryX=1.023;entryY=0.438;entryDx=0;entryDy=0;entryPerimeter=0;" edge="1" parent="1" source="Ree-fu6bCqlC5VlJ2QDA-5" target="Ree-fu6bCqlC5VlJ2QDA-4">
          <mxGeometry width="50" height="50" relative="1" as="geometry">
            <mxPoint x="390" y="110" as="sourcePoint" />
            <mxPoint x="510" y="40" as="targetPoint" />
            <Array as="points">
              <mxPoint x="530" y="240" />
            </Array>
          </mxGeometry>
        </mxCell>
        <mxCell id="Ree-fu6bCqlC5VlJ2QDA-8" value="&lt;div style=&quot;text-align: center;&quot;&gt;&lt;span style=&quot;background-color: initial;&quot;&gt;Pessoa Jurídica&lt;/span&gt;&lt;/div&gt;&lt;div style=&quot;text-align: center;&quot;&gt;&lt;span style=&quot;background-color: initial;&quot;&gt;--------------------------------&lt;/span&gt;&lt;/div&gt;+ cnpj: int&lt;br&gt;&lt;br&gt;+ razaoSocial: string&lt;span style=&quot;background-color: initial;&quot;&gt;&amp;nbsp;&lt;/span&gt;" style="whiteSpace=wrap;html=1;fontSize=17;align=left;" vertex="1" parent="1">
          <mxGeometry x="120" y="440" width="190" height="130" as="geometry" />
        </mxCell>
        <mxCell id="Ree-fu6bCqlC5VlJ2QDA-10" value="&lt;div style=&quot;text-align: center;&quot;&gt;&lt;span style=&quot;background-color: initial;&quot;&gt;Pessoa Fisica&lt;/span&gt;&lt;/div&gt;&lt;div style=&quot;text-align: center;&quot;&gt;&lt;span style=&quot;background-color: initial;&quot;&gt;--------------------------------&lt;/span&gt;&lt;/div&gt;+ cpf: int&lt;br&gt;&lt;br&gt;+ dataNascimento: string&lt;span style=&quot;background-color: initial;&quot;&gt;&amp;nbsp;&lt;/span&gt;" style="whiteSpace=wrap;html=1;fontSize=17;align=left;" vertex="1" parent="1">
          <mxGeometry x="400" y="440" width="200" height="130" as="geometry" />
        </mxCell>
        <mxCell id="Ree-fu6bCqlC5VlJ2QDA-11" value="Concreta" style="text;html=1;align=center;verticalAlign=middle;resizable=0;points=[];autosize=1;strokeColor=none;fillColor=none;fontSize=17;" vertex="1" parent="1">
          <mxGeometry x="690" y="440" width="90" height="30" as="geometry" />
        </mxCell>
        <mxCell id="Ree-fu6bCqlC5VlJ2QDA-12" value="" style="endArrow=classic;html=1;rounded=0;fontSize=17;exitX=-0.009;exitY=0.527;exitDx=0;exitDy=0;exitPerimeter=0;" edge="1" parent="1" source="Ree-fu6bCqlC5VlJ2QDA-11">
          <mxGeometry width="50" height="50" relative="1" as="geometry">
            <mxPoint x="390" y="410" as="sourcePoint" />
            <mxPoint x="620" y="456" as="targetPoint" />
          </mxGeometry>
        </mxCell>
        <mxCell id="Ree-fu6bCqlC5VlJ2QDA-13" value="" style="endArrow=none;html=1;rounded=0;fontSize=17;exitX=0.549;exitY=-0.014;exitDx=0;exitDy=0;exitPerimeter=0;" edge="1" parent="1" source="Ree-fu6bCqlC5VlJ2QDA-8">
          <mxGeometry width="50" height="50" relative="1" as="geometry">
            <mxPoint x="390" y="410" as="sourcePoint" />
            <mxPoint x="224" y="360" as="targetPoint" />
          </mxGeometry>
        </mxCell>
        <mxCell id="Ree-fu6bCqlC5VlJ2QDA-14" value="" style="endArrow=none;html=1;rounded=0;fontSize=17;exitX=0.5;exitY=0;exitDx=0;exitDy=0;" edge="1" parent="1" source="Ree-fu6bCqlC5VlJ2QDA-10">
          <mxGeometry width="50" height="50" relative="1" as="geometry">
            <mxPoint x="390" y="410" as="sourcePoint" />
            <mxPoint x="500" y="360" as="targetPoint" />
          </mxGeometry>
        </mxCell>
        <mxCell id="Ree-fu6bCqlC5VlJ2QDA-15" value="" style="endArrow=none;html=1;rounded=0;fontSize=17;" edge="1" parent="1">
          <mxGeometry width="50" height="50" relative="1" as="geometry">
            <mxPoint x="220" y="360" as="sourcePoint" />
            <mxPoint x="500" y="360" as="targetPoint" />
          </mxGeometry>
        </mxCell>
        <mxCell id="Ree-fu6bCqlC5VlJ2QDA-16" value="" style="endArrow=classic;html=1;rounded=0;fontSize=17;entryX=0.5;entryY=1;entryDx=0;entryDy=0;" edge="1" parent="1" target="Ree-fu6bCqlC5VlJ2QDA-4">
          <mxGeometry width="50" height="50" relative="1" as="geometry">
            <mxPoint x="345" y="360" as="sourcePoint" />
            <mxPoint x="440" y="360" as="targetPoint" />
          </mxGeometry>
        </mxCell>
        <mxCell id="Ree-fu6bCqlC5VlJ2QDA-17" value="Concreta&lt;br&gt;O elevador,&lt;br&gt;vc usa ele" style="text;html=1;align=left;verticalAlign=middle;resizable=0;points=[];autosize=1;strokeColor=none;fillColor=none;fontSize=17;" vertex="1" parent="1">
          <mxGeometry y="440" width="110" height="70" as="geometry" />
        </mxCell>
        <mxCell id="Ree-fu6bCqlC5VlJ2QDA-19" value="" style="endArrow=none;html=1;rounded=0;fontSize=17;exitX=0.382;exitY=1.071;exitDx=0;exitDy=0;exitPerimeter=0;" edge="1" parent="1" source="Ree-fu6bCqlC5VlJ2QDA-17">
          <mxGeometry width="50" height="50" relative="1" as="geometry">
            <mxPoint x="390" y="390" as="sourcePoint" />
            <mxPoint x="42" y="550" as="targetPoint" />
          </mxGeometry>
        </mxCell>
        <mxCell id="Ree-fu6bCqlC5VlJ2QDA-20" value="" style="endArrow=classic;html=1;rounded=0;fontSize=17;" edge="1" parent="1">
          <mxGeometry width="50" height="50" relative="1" as="geometry">
            <mxPoint x="40" y="550" as="sourcePoint" />
            <mxPoint x="110" y="550" as="targetPoint" />
          </mxGeometry>
        </mxCell>
      </root>
    </mxGraphModel>
  </diagram>
</mxfile>
